<svg xmlns="http://www.w3.org/2000/svg" version="1.1" xmlns:xlink="http://www.w3.org/1999/xlink" xmlns:svgjs="http://svgjs.dev/svgjs" width="1000" height="1125" viewBox="0 0 1000 1125"><g transform="matrix(1,0,0,1,0,0)"><svg viewBox="0 0 320 360" data-background-color="#ffffff" preserveAspectRatio="xMidYMid meet" height="1125" width="1000" xmlns="http://www.w3.org/2000/svg" xmlns:xlink="http://www.w3.org/1999/xlink"><g id="tight-bounds" transform="matrix(1,0,0,1,0,0)"><svg viewBox="0 0 320 360" height="360" width="320"><g><svg></svg></g><g><svg viewBox="0 0 320 360" height="360" width="320"><g><path xmlns="http://www.w3.org/2000/svg" d="M320 187.111c0-45.764-20.238-86.866-52.203-114.908-28.043-31.964-69.145-52.203-114.908-52.203-84.302 0-152.889 68.587-152.889 152.889 0 45.753 20.231 86.848 52.185 114.891 28.043 31.975 69.152 52.22 114.926 52.22 0.299 0 0.59-0.021 0.889-0.021 0.299 0 0.59 0.021 0.889 0.021 83.456 0 151.111-67.655 151.111-151.111 0-0.299-0.021-0.59-0.021-0.889 0-0.299 0.021-0.59 0.021-0.889zM59.833 263.097c-15.093-21.255-24.071-47.143-24.256-75.097 0.48-72.928 59.492-131.943 132.423-132.423 27.954 0.185 53.845 9.163 75.097 24.256 24.366 23.627 39.57 56.64 39.57 93.056 0 71.559-58.219 129.778-129.778 129.778-36.416 0-69.429-15.204-93.056-39.57zM3.556 172.889c0-82.343 66.99-149.333 149.333-149.333 35.051 0 67.292 12.167 92.8 32.462-22.98-13.824-49.863-21.796-78.578-21.796-84.302 0-152.889 68.587-152.889 152.889 0 28.708 7.968 55.584 21.785 78.56-20.288-25.5-32.452-57.739-32.451-92.782zM167.111 318.667c-35.84 0-68.363-14.418-92.107-37.743 21.952 15.89 48.864 25.298 77.885 25.298 73.522 0 133.333-59.812 133.333-133.333 0-29.02-9.408-55.932-25.298-77.885 23.324 23.744 37.742 56.267 37.743 92.107 0 72.54-59.015 131.556-131.556 131.556z" fill="#a437db" fill-rule="nonzero" stroke="none" stroke-width="1" stroke-linecap="butt" stroke-linejoin="miter" stroke-miterlimit="10" stroke-dasharray="" stroke-dashoffset="0" font-family="none" font-weight="none" font-size="none" text-anchor="none" style="mix-blend-mode: normal" data-fill-palette-color="tertiary"></path></g><g transform="matrix(1,0,0,1,64,116.16478637658098)"><svg viewBox="0 0 192 127.67042724683805" height="127.67042724683805" width="192"><g><svg viewBox="0 0 192 127.67042724683805" height="127.67042724683805" width="192"><g><svg viewBox="0 0 192 127.67042724683805" height="127.67042724683805" width="192"><g transform="matrix(1,0,0,1,0,76.79209589488272)"><svg viewBox="0 0 192 50.878331351955325" height="50.878331351955325" width="192"><g id="textblocktransform"><svg viewBox="0 0 192 50.878331351955325" height="50.878331351955325" width="192" id="textblock"><g><svg viewBox="0 0 192 27.44134078212291" height="27.44134078212291" width="192"><g transform="matrix(1,0,0,1,0,0)"><svg width="192" viewBox="4.650000095367432 -35.599998474121094 322.17999267578125 46.04999923706055" height="27.44134078212291" data-palette-color="#85144b"><path d="M8.75 0L4.65 0 4.65-35.6 8.75-35.6 8.75-25.9 8.5-20.15 8.65-20.15Q10.55-22.2 12.73-23.55 14.9-24.9 17.75-24.9L17.75-24.9Q22.1-24.9 24.13-22.43 26.15-19.95 26.15-15.1L26.15-15.1 26.15 0 22.05 0 22.05-14.55Q22.05-18 20.75-19.68 19.45-21.35 16.45-21.35L16.45-21.35Q15.35-21.35 14.43-21.08 13.5-20.8 12.6-20.25 11.7-19.7 10.75-18.88 9.8-18.05 8.75-16.95L8.75-16.95 8.75 0ZM36.55 10.45L36.55 10.45Q34.75 10.45 33.35 9.95L33.35 9.95 34.2 6.7Q34.7 6.85 35.27 6.95 35.85 7.05 36.4 7.05L36.4 7.05Q38.95 7.05 40.55 5.58 42.15 4.1 43.05 1.85L43.05 1.85 43.8 0.05 32.45-24.3 36.6-24.3 42.55-10.85Q43.25-9.25 44.02-7.4 44.8-5.55 45.55-3.8L45.55-3.8 45.75-3.8Q46.4-5.55 47.07-7.38 47.75-9.2 48.35-10.85L48.35-10.85 53.65-24.3 57.55-24.3 46.85 2Q46.15 3.8 45.25 5.35 44.35 6.9 43.1 8.03 41.85 9.15 40.22 9.8 38.6 10.45 36.55 10.45ZM68.75 10.25L64.65 10.25 64.65-24.3 68.05-24.3 68.4-21.2 68.55-21.2Q70.25-22.8 72.47-23.85 74.7-24.9 76.95-24.9L76.95-24.9Q79.4-24.9 81.27-24.03 83.15-23.15 84.42-21.53 85.7-19.9 86.34-17.63 87-15.35 87-12.5L87-12.5Q87-9.4 86.09-6.98 85.2-4.55 83.67-2.85 82.15-1.15 80.15-0.28 78.15 0.6 75.95 0.6L75.95 0.6Q74.25 0.6 72.27-0.23 70.3-1.05 68.7-2.55L68.7-2.55 68.55-2.55 68.75 2.05 68.75 10.25ZM75.25-2.85L75.25-2.85Q78.55-2.85 80.65-5.4 82.75-7.95 82.75-12.5L82.75-12.5Q82.75-14.5 82.34-16.15 81.95-17.8 81.12-18.98 80.3-20.15 79-20.8 77.7-21.45 75.9-21.45L75.9-21.45Q74.3-21.45 72.47-20.58 70.65-19.7 68.75-17.8L68.75-17.8 68.75-5.7Q70.5-4.15 72.25-3.5 74-2.85 75.25-2.85ZM106.49 0.6L106.49 0.6Q103.74 0.6 101.37-0.25 98.99-1.1 97.22-2.75 95.44-4.4 94.42-6.78 93.39-9.15 93.39-12.2L93.39-12.2Q93.39-15.15 94.42-17.5 95.44-19.85 97.17-21.5 98.89-23.15 101.12-24.03 103.34-24.9 105.79-24.9L105.79-24.9Q108.39-24.9 110.47-24.08 112.54-23.25 113.97-21.75 115.39-20.25 116.14-18.15 116.89-16.05 116.89-13.5L116.89-13.5Q116.89-12.8 116.84-12.15 116.79-11.5 116.69-11L116.69-11 97.54-11Q97.94-6.85 100.57-4.78 103.19-2.7 106.99-2.7L106.99-2.7Q109.19-2.7 110.97-3.33 112.74-3.95 114.39-5L114.39-5 115.89-2.3Q114.09-1.1 111.77-0.25 109.44 0.6 106.49 0.6ZM105.89-21.65L105.89-21.65Q104.39-21.65 103.02-21.15 101.64-20.65 100.54-19.73 99.44-18.8 98.69-17.4 97.94-16 97.64-14.2L97.64-14.2 113.14-14.2Q112.89-17.95 110.97-19.8 109.04-21.65 105.89-21.65ZM131.39 0L127.29 0 127.29-24.3 130.69-24.3 131.04-18.55 131.19-18.55Q133.09-21.5 135.87-23.2 138.64-24.9 142.04-24.9L142.04-24.9Q143.39-24.9 144.54-24.68 145.69-24.45 146.84-23.9L146.84-23.9 145.89-20.35Q144.59-20.8 143.72-21 142.84-21.2 141.39-21.2L141.39-21.2Q138.64-21.2 136.12-19.63 133.59-18.05 131.39-14.25L131.39-14.25 131.39 0ZM175.74-14.95L154.24-14.95 154.24-18.05 175.74-18.05 175.74-14.95ZM188.74 0L184.64 0 184.64-24.3 188.04-24.3 188.39-20.15 188.59-20.15Q190.49-22.2 192.69-23.55 194.89-24.9 197.74-24.9L197.74-24.9Q202.09-24.9 204.11-22.43 206.14-19.95 206.14-15.1L206.14-15.1 206.14 0 202.04 0 202.04-14.55Q202.04-18 200.74-19.68 199.44-21.35 196.44-21.35L196.44-21.35Q195.34-21.35 194.41-21.08 193.49-20.8 192.59-20.25 191.69-19.7 190.74-18.88 189.79-18.05 188.74-16.95L188.74-16.95 188.74 0ZM224.98 0.6L224.98 0.6Q222.58 0.6 220.41-0.25 218.23-1.1 216.58-2.73 214.93-4.35 213.96-6.73 212.98-9.1 212.98-12.1L212.98-12.1Q212.98-15.15 213.96-17.53 214.93-19.9 216.58-21.55 218.23-23.2 220.41-24.05 222.58-24.9 224.98-24.9L224.98-24.9Q227.38-24.9 229.56-24.05 231.73-23.2 233.38-21.55 235.03-19.9 236.01-17.53 236.98-15.15 236.98-12.1L236.98-12.1Q236.98-9.1 236.01-6.73 235.03-4.35 233.38-2.73 231.73-1.1 229.56-0.25 227.38 0.6 224.98 0.6ZM224.98-2.8L224.98-2.8Q226.73-2.8 228.16-3.48 229.58-4.15 230.61-5.38 231.63-6.6 232.18-8.3 232.73-10 232.73-12.1L232.73-12.1Q232.73-14.2 232.18-15.93 231.63-17.65 230.61-18.9 229.58-20.15 228.16-20.83 226.73-21.5 224.98-21.5L224.98-21.5Q223.23-21.5 221.81-20.83 220.38-20.15 219.36-18.9 218.33-17.65 217.78-15.93 217.23-14.2 217.23-12.1L217.23-12.1Q217.23-10 217.78-8.3 218.33-6.6 219.36-5.38 220.38-4.15 221.81-3.48 223.23-2.8 224.98-2.8ZM255.48 0.6L255.48 0.6Q251.88 0.6 248.83-0.53 245.78-1.65 243.53-3.2L243.53-3.2 245.43-5.9Q247.53-4.4 250.06-3.5 252.58-2.6 255.98-2.6L255.98-2.6Q259.08-2.6 260.61-3.73 262.13-4.85 262.13-6.4L262.13-6.4Q262.13-7.1 261.88-7.7 261.63-8.3 260.81-8.85 259.98-9.4 258.48-9.9 256.98-10.4 254.53-10.9L254.53-10.9Q249.78-11.9 247.41-13.58 245.03-15.25 245.03-18L245.03-18Q245.03-19.45 245.68-20.73 246.33-22 247.61-22.93 248.88-23.85 250.76-24.38 252.63-24.9 255.13-24.9L255.13-24.9Q257.93-24.9 260.53-23.98 263.13-23.05 264.93-21.8L264.93-21.8 262.93-19.15Q261.23-20.3 259.18-21 257.13-21.7 254.78-21.7L254.78-21.7Q251.68-21.7 250.43-20.65 249.18-19.6 249.18-18.2L249.18-18.2Q249.18-16.6 250.83-15.78 252.48-14.95 256.23-14.15L256.23-14.15Q259.28-13.5 261.23-12.78 263.18-12.05 264.31-11.15 265.43-10.25 265.86-9.15 266.28-8.05 266.28-6.65L266.28-6.65Q266.28-5.15 265.58-3.85 264.88-2.55 263.5-1.55 262.13-0.55 260.11 0.03 258.08 0.6 255.48 0.6ZM289.68 0.6L289.68 0.6Q287.03 0.6 285.23-0.13 283.43-0.85 282.33-2.18 281.23-3.5 280.75-5.35 280.28-7.2 280.28-9.45L280.28-9.45 280.28-20.95 273.43-20.95 273.43-24.05 280.43-24.3 280.98-32.1 284.38-32.1 284.38-24.3 296.33-24.3 296.33-20.95 284.38-20.95 284.38-9.4Q284.38-7.75 284.68-6.53 284.98-5.3 285.68-4.45 286.38-3.6 287.58-3.18 288.78-2.75 290.53-2.75L290.53-2.75Q292.28-2.75 293.68-3.05 295.08-3.35 296.38-3.85L296.38-3.85 297.28-0.85Q295.63-0.25 293.8 0.18 291.98 0.6 289.68 0.6ZM311.38 0L307.28 0 307.28-24.3 310.68-24.3 311.03-18.55 311.18-18.55Q313.08-21.5 315.85-23.2 318.63-24.9 322.03-24.9L322.03-24.9Q323.38-24.9 324.53-24.68 325.68-24.45 326.83-23.9L326.83-23.9 325.88-20.35Q324.58-20.8 323.7-21 322.83-21.2 321.38-21.2L321.38-21.2Q318.63-21.2 316.1-19.63 313.58-18.05 311.38-14.25L311.38-14.25 311.38 0Z" opacity="1" transform="matrix(1,0,0,1,0,0)" fill="#85144b" class="undefined-text-0" data-fill-palette-color="primary" id="text-0"></path></svg></g></svg></g><g transform="matrix(1,0,0,1,0,33.91958274860336)"><svg viewBox="0 0 192 16.95874860335196" height="16.95874860335196" width="192"><g transform="matrix(1,0,0,1,0,0)"><svg width="192" viewBox="1.5 -35.45000076293945 532.1107788085938 47" height="16.95874860335196" data-palette-color="#b19dd0"><path d="M20.3-17.35L20.3-17.35Q24.5-16.85 26.85-14.48 29.2-12.1 29.2-8.95L29.2-8.95Q29.2-5.1 25.78-2.63 22.35-0.15 16.7 0L16.7 0 1.8 0 1.5-1.6 5.75-3.15 5.75-29.9 2.2-30.1 2.25-32.5Q10.55-32.9 15.3-32.9L15.3-32.9Q20.9-32.9 24.18-30.68 27.45-28.45 27.45-24.6L27.45-24.6Q27.45-21.85 25.65-19.8 23.85-17.75 20.3-17.35ZM17.25-29.95L10.4-29.2 10.4-18.4 12.9-18.4Q17.7-18.4 20-20.1 22.3-21.8 22.3-24.25L22.3-24.25Q22.3-26.25 20.88-27.93 19.45-29.6 17.25-29.95L17.25-29.95ZM10.4-3.45L15.4-3.05 16.5-3Q20-3 21.9-4.7 23.8-6.4 23.8-8.85L23.8-8.85Q23.8-11.6 21.5-13.6 19.2-15.6 15.7-15.7L15.7-15.7 10.4-15.7 10.4-3.45ZM57.96-23.15L57.96-23.15Q58.16-19.45 57.06-15.05L57.06-15.05 54.36-15.05 53.81-20.55Q49.76-18.3 46.96-14.6L46.96-14.6 46.96-3.3Q50.61-3.05 52.11-2.4L52.11-2.4 51.81 0 39.11 0 38.86-1.65 42.51-3 42.51-20.6 38.76-20.3 38.16-22.65Q41.51-24.1 44.96-24.2L44.96-24.2 46.96-22.45 46.96-17.9 52.21-23.5Q53.66-24.1 54.86-24.1L54.86-24.1Q56.46-24.1 57.96-23.15ZM73.77-28.65L73.77-28.65Q71.32-29.7 69.92-31.65L69.92-31.65Q71.22-34.35 72.97-35.45L72.97-35.45Q75.22-34.55 76.72-32.45L76.72-32.45Q75.92-30.15 73.77-28.65ZM75.77-22.45L75.77-3.2Q78.27-2.9 79.37-2.4L79.37-2.4 79.07 0 67.77 0 67.52-1.65Q68.72-2.25 71.32-3.05L71.32-3.05 71.32-20.6 67.57-20.3 66.97-22.65Q70.32-24.1 73.77-24.2L73.77-24.2 75.77-22.45ZM112.83-15.35L112.83-3.2Q115.38-2.85 116.33-2.4L116.33-2.4 116.03 0 105.78 0 105.53-1.65 108.38-2.75 108.38-14.8Q108.38-20.2 105.18-20.2L105.18-20.2Q102.28-20.2 97.38-16.45L97.38-16.45 97.38-3.15Q99.48-2.9 100.63-2.4L100.63-2.4 100.33 0 89.63 0 89.38-1.65 92.93-2.95 92.93-20.6 89.18-20.3 88.58-22.65Q91.93-24.1 95.38-24.2L95.38-24.2 97.38-22.45 97.38-19.15Q104.88-24.2 107.58-24.2L107.58-24.2Q109.03-23.95 110.51-22.73 111.98-21.5 112.41-20.2 112.83-18.9 112.83-15.35L112.83-15.35ZM131.29-4.8L131.29-4.8Q134.94-4.75 140.17-3.73 145.39-2.7 148.69-1.4L148.69-1.4 148.94 0.75Q148.94 5.3 144.74 8.43 140.54 11.55 134.79 11.55L134.79 11.55Q130.89 11.55 128.17 9.85 125.44 8.15 125.44 5.2L125.44 5.2 125.49 4.45 131.44-1.05 127.49-1.25 126.59-3.6Q129.04-6.5 131.89-8.55L131.89-8.55Q126.14-10.75 126.14-16.25L126.14-16.25Q126.14-19.95 129.14-22.38 132.14-24.8 136.54-24.8L136.54-24.8Q140.44-24.8 143.19-22.85L143.19-22.85Q144.99-26.25 149.14-27.1L149.14-27.1 150.09-21.9Q147.49-21.9 145.34-20.9L145.34-20.9Q146.89-18.8 146.89-16.15L146.89-16.15Q146.89-12.4 143.87-10.05 140.84-7.7 136.54-7.7L136.54-7.7 134.69-7.85Q132.49-6.15 131.29-4.8ZM132.39-21.15L132.39-21.15Q130.74-19.2 130.74-16.55L130.74-16.55Q130.74-13.75 132.29-12 133.84-10.25 136.54-10.25L136.54-10.25Q138.09-10.25 139.89-10.9L139.89-10.9Q142.29-12.85 142.29-15.8L142.29-15.8Q142.29-18.4 140.49-20.25 138.69-22.1 136.09-22.1L136.09-22.1Q134.29-22.1 132.39-21.15ZM135.09 7.5L135.09 7.5Q138.39 7.5 141.52 6.13 144.64 4.75 145.99 2.25L145.99 2.25Q142.79 0.35 134.44-0.75L134.44-0.75Q129.54 2.6 129.54 4.75L129.54 4.75Q129.54 6 131.09 6.75 132.64 7.5 135.09 7.5ZM181.51-32.5L195.46-32.9Q200.71-32.9 204.01-29.98 207.31-27.05 207.31-22.55L207.31-22.55Q207.31-18.25 204.29-15.33 201.26-12.4 196.46-12.25L196.46-12.25 189.66-12.25 189.66-3.05 195.51-2.35 195.46 0 181.06 0 180.76-1.6 185.01-3.15 185.01-29.9 181.46-30.1 181.51-32.5ZM194.76-15.15L194.76-15.15Q198.51-15.15 200.36-17.35 202.21-19.55 202.21-22.7L202.21-22.7Q202.21-25.1 201.21-27.08 200.21-29.05 198.31-29.95L198.31-29.95 189.66-29.2 189.66-15.6Q192.66-15.15 194.76-15.15ZM237.48-8.65L240.18-8.25Q239.73-3.25 238.83 0L238.83 0 218.88 0 217.98-3.2 229.58-16.25Q233.83-21.3 233.83-24.75L233.83-24.75Q233.83-26.8 232.53-28.38 231.23-29.95 228.58-29.95L228.58-29.95Q226.13-29.95 222.98-29L222.98-29 222.08-22.75 219.23-22.8Q218.78-25.5 218.78-28.2L218.78-28.2 218.83-30.35Q224.03-33.5 229.13-33.5L229.13-33.5Q233.13-33.5 235.9-30.98 238.68-28.45 238.68-24.65L238.68-24.65Q238.68-22.45 237.58-20.28 236.48-18.1 232.18-13.2L232.18-13.2 223.53-3.95 223.68-3.5 235.88-4.2 237.48-8.65ZM252.74-32.5L266.69-32.9Q271.94-32.9 275.24-29.98 278.54-27.05 278.54-22.55L278.54-22.55Q278.54-18.25 275.51-15.33 272.49-12.4 267.69-12.25L267.69-12.25 260.89-12.25 260.89-3.05 266.74-2.35 266.69 0 252.29 0 251.99-1.6 256.24-3.15 256.24-29.9 252.69-30.1 252.74-32.5ZM265.99-15.15L265.99-15.15Q269.74-15.15 271.59-17.35 273.44-19.55 273.44-22.7L273.44-22.7Q273.44-25.1 272.44-27.08 271.44-29.05 269.54-29.95L269.54-29.95 260.89-29.2 260.89-15.6Q263.89-15.15 265.99-15.15ZM318.26-3.4L318.26-3.4Q319.71-3.4 322.86-4.55L322.86-4.55 323.71-2.25 317.21 0.75Q315.51 0.85 313.83-0.53 312.16-1.9 312.16-3.5L312.16-3.5 312.16-19.65 309.06-19.6 308.71-22Q310.31-22.7 312.26-23.15L312.26-23.15 314.26-29.45 316.61-29.45 316.61-23.4 323.61-23.4 323.81-21.95 321.46-19.55 316.61-19.55 316.61-6.1Q316.61-4.55 316.96-3.98 317.31-3.4 318.26-3.4ZM333.32-11.8Q333.32-17.4 336.49-20.9 339.67-24.4 344.62-24.4L344.62-24.4Q349.52-24.4 352.57-20.8 355.62-17.2 355.62-11.5L355.62-11.5Q355.62-5.85 352.62-2.43 349.62 1 344.72 1L344.72 1Q339.77 1 336.54-2.6 333.32-6.2 333.32-11.8ZM347.67-2.6L347.67-2.6Q350.92-4.75 350.92-10.95L350.92-10.95Q350.92-15.4 349.27-18.35 347.62-21.3 344.22-21.3L344.22-21.3Q341.97-21.3 340.42-20.2L340.42-20.2Q338.07-17.4 338.07-12.35L338.07-12.35Q338.07-8.05 339.89-5.15 341.72-2.25 345.27-2.25L345.27-2.25Q346.42-2.25 347.67-2.6ZM420.49-32.5L420.79-30.9 416.54-29.35 416.54 0 411.39 0.55 393.64-27.85 394.54-20.9 394.54-2.85 398.99-2.35 398.94 0 386.84 0 386.54-1.6 390.79-3.15 390.79-29.75 387.54-30.15 387.59-32.5 396.49-32.5 413.69-4.8 412.74-11.6 412.74-29.6 407.89-30.15 407.94-32.5 420.49-32.5ZM429-11.8Q429-17.4 432.18-20.9 435.35-24.4 440.3-24.4L440.3-24.4Q445.2-24.4 448.25-20.8 451.3-17.2 451.3-11.5L451.3-11.5Q451.3-5.85 448.3-2.43 445.3 1 440.4 1L440.4 1Q435.45 1 432.23-2.6 429-6.2 429-11.8ZM443.35-2.6L443.35-2.6Q446.6-4.75 446.6-10.95L446.6-10.95Q446.6-15.4 444.95-18.35 443.3-21.3 439.9-21.3L439.9-21.3Q437.65-21.3 436.1-20.2L436.1-20.2Q433.75-17.4 433.75-12.35L433.75-12.35Q433.75-8.05 435.58-5.15 437.4-2.25 440.95-2.25L440.95-2.25Q442.1-2.25 443.35-2.6ZM466.16-18.5L466.16-18.5Q466.16-16.9 467.46-15.95 468.76-15 471.46-13.8L471.46-13.8 474.41-12.45Q478.71-10.2 478.71-6.25L478.71-6.25Q478.71-3.05 476.31-1.03 473.91 1 470.11 1L470.11 1Q465.96 1 461.26-1.6L461.26-1.6 463.11-6Q467.81-2.8 473.01-2.1L473.01-2.1Q474.36-3.3 474.36-5 474.36-6.7 473.11-7.75 471.86-8.8 468.19-10.43 464.51-12.05 463.24-13.58 461.96-15.1 461.96-17.25L461.96-17.25Q461.96-20.4 464.64-22.4 467.31-24.4 471.46-24.4L471.46-24.4Q474.96-24.4 477.86-22.9L477.86-22.9Q478.01-19.25 477.01-16.45L477.01-16.45 474.31-16.45 473.96-20.3Q471.46-21.4 468.71-21.4L468.71-21.4 467.76-21.35Q466.16-20.35 466.16-18.5ZM498.97-3.4L498.97-3.4Q500.42-3.4 503.57-4.55L503.57-4.55 504.42-2.25 497.92 0.75Q496.22 0.85 494.55-0.53 492.87-1.9 492.87-3.5L492.87-3.5 492.87-19.65 489.77-19.6 489.42-22Q491.02-22.7 492.97-23.15L492.97-23.15 494.97-29.45 497.32-29.45 497.32-23.4 504.32-23.4 504.52-21.95 502.17-19.55 497.32-19.55 497.32-6.1Q497.32-4.55 497.67-3.98 498.02-3.4 498.97-3.4ZM533.58-23.15L533.58-23.15Q533.78-19.45 532.68-15.05L532.68-15.05 529.98-15.05 529.43-20.55Q525.38-18.3 522.58-14.6L522.58-14.6 522.58-3.3Q526.23-3.05 527.73-2.4L527.73-2.4 527.43 0 514.73 0 514.48-1.65 518.13-3 518.13-20.6 514.38-20.3 513.78-22.65Q517.13-24.1 520.58-24.2L520.58-24.2 522.58-22.45 522.58-17.9 527.83-23.5Q529.28-24.1 530.48-24.1L530.48-24.1Q532.08-24.1 533.58-23.15Z" opacity="1" transform="matrix(1,0,0,1,0,0)" fill="#b19dd0" class="undefined-text-1" data-fill-palette-color="secondary" id="text-1"></path></svg></g></svg></g></svg></g></svg></g><g transform="matrix(1,0,0,1,60.024508264115944,0)"><svg viewBox="0 0 71.95098347176811 70.31385392840227" height="70.31385392840227" width="71.95098347176811"><g><svg xmlns="http://www.w3.org/2000/svg" xmlns:xlink="http://www.w3.org/1999/xlink" version="1.1" x="0" y="0" viewBox="4.000085353851318 5.013332843780518 91.05855560302734 88.98666381835938" enable-background="new 0 0 100 100" xml:space="preserve" height="70.31385392840227" width="71.95098347176811" class="icon-icon-0" data-fill-palette-color="accent" id="icon-0"><g fill="#8b3c7f" data-fill-palette-color="accent"><circle cx="55.538" cy="19.677" r="4.9" fill="#8b3c7f" data-fill-palette-color="accent"></circle></g><g fill="#8b3c7f" data-fill-palette-color="accent"><circle cx="23.472" cy="42.596" r="4.9" fill="#8b3c7f" data-fill-palette-color="accent"></circle></g><g fill="#8b3c7f" data-fill-palette-color="accent"><circle cx="45.736" cy="65.145" r="4.9" fill="#8b3c7f" data-fill-palette-color="accent"></circle></g><g fill="#8b3c7f" data-fill-palette-color="accent"><circle cx="12.968" cy="82.662" r="4.9" fill="#8b3c7f" data-fill-palette-color="accent"></circle></g><g fill="#8b3c7f" data-fill-palette-color="accent"><circle cx="81.493" cy="25.552" r="4.9" fill="#8b3c7f" data-fill-palette-color="accent"></circle></g><g fill="#8b3c7f" data-fill-palette-color="accent"><circle cx="47.69" cy="89.1" r="4.9" fill="#8b3c7f" data-fill-palette-color="accent"></circle></g><g fill="#8b3c7f" data-fill-palette-color="accent"><path d="M12.968 83.811c-0.145 0-0.287-0.027-0.419-0.078-0.101-0.041-0.197-0.094-0.285-0.162-0.15-0.117-0.273-0.273-0.353-0.457-0.02-0.047-0.037-0.096-0.05-0.143L4.046 56.078c-0.136-0.471 0.039-0.975 0.438-1.258l51.203-36.386c0.455-0.323 1.075-0.273 1.473 0.117s0.457 1.01 0.143 1.47L16.579 79.428l28.615-15.297c0.166-0.088 0.353-0.135 0.542-0.135h46.606L80.492 26.358 58.655 7.024c-0.475-0.421-0.52-1.147-0.098-1.623 0.42-0.475 1.147-0.52 1.622-0.099l22.075 19.545c0.156 0.139 0.272 0.317 0.335 0.516l12.417 39.437c0.109 0.348 0.047 0.729-0.17 1.023-0.217 0.297-0.561 0.471-0.927 0.471H46.024L13.532 83.664c-0.051 0.027-0.104 0.053-0.159 0.074-0.069 0.025-0.141 0.045-0.212 0.057C13.097 83.807 13.032 83.811 12.968 83.811zM6.482 56.221l6.912 23.785 38.356-55.953L6.482 56.221z" fill="#8b3c7f" data-fill-palette-color="accent"></path></g><g fill="#8b3c7f" data-fill-palette-color="accent"><path d="M45.737 66.295c-0.077 0-0.155-0.008-0.233-0.023l0 0c-0.001 0-0.002 0-0.002 0-0.017-0.004-0.032-0.008-0.047-0.012l0 0c-0.003 0-0.004 0-0.006-0.002l0 0c-0.213-0.055-0.396-0.164-0.539-0.312L10.716 31.75 6.281 55.965c-0.114 0.625-0.714 1.037-1.338 0.924-0.625-0.115-1.038-0.715-0.924-1.338l4.829-26.37c0.076-0.42 0.381-0.763 0.788-0.891 0.408-0.127 0.854-0.018 1.155 0.285l34.292 34.292 9.896-42.656-28.495-7.184c-0.526-0.132-0.888-0.614-0.868-1.156s0.416-0.997 0.949-1.091l32.653-5.749c0.38-0.067 0.769 0.062 1.033 0.341 0.266 0.28 0.373 0.675 0.286 1.051l-2.81 12.109 24.046 6.062c0.391 0.099 0.702 0.396 0.819 0.782 0.116 0.386 0.022 0.806-0.249 1.105L46.603 65.9c-0.065 0.076-0.141 0.143-0.224 0.197 0 0.002-0.001 0.002-0.001 0.002-0.001 0-0.001 0-0.002 0l-0.001 0.002c-0.001 0-0.001 0-0.001 0-0.017 0.012-0.032 0.021-0.049 0.031-0.001 0-0.001 0-0.001 0-0.001 0-0.001 0-0.002 0.002h-0.001c-0.001 0-0.001 0-0.001 0C46.146 66.238 45.945 66.295 45.737 66.295zM57.209 20.773l-9.354 40.323 31.499-34.74L57.209 20.773zM32.262 12.112l23.237 5.858 2.406-10.373L32.262 12.112z" fill="#8b3c7f" data-fill-palette-color="accent"></path></g><g fill="#8b3c7f" data-fill-palette-color="accent"><path d="M47.69 90.25c-0.069 0-0.14-0.006-0.21-0.02l-34.722-6.439c-0.624-0.115-1.036-0.715-0.921-1.34 0.116-0.623 0.717-1.037 1.34-0.92l33.245 6.164-1.82-22.307-18.92-53.09c-0.214-0.598 0.099-1.256 0.697-1.469 0.598-0.213 1.255 0.099 1.469 0.697L46.819 64.76c0.033 0.094 0.055 0.191 0.062 0.293l1.955 23.953c0.028 0.357-0.11 0.707-0.376 0.947C48.248 90.145 47.973 90.25 47.69 90.25z" fill="#8b3c7f" data-fill-palette-color="accent"></path></g><g fill="#8b3c7f" data-fill-palette-color="accent"><path d="M47.689 90.25c-0.183 0-0.367-0.043-0.54-0.135-0.561-0.301-0.772-0.996-0.474-1.557l33.803-63.391c0.299-0.56 0.995-0.772 1.556-0.474 0.56 0.299 0.771 0.996 0.474 1.556L48.705 89.641C48.498 90.029 48.101 90.25 47.689 90.25z" fill="#8b3c7f" data-fill-palette-color="accent"></path></g></svg></g></svg></g><g></g></svg></g></svg></g></svg></g></svg></g><defs></defs></svg><rect width="320" height="360" fill="none" stroke="none" visibility="hidden"></rect></g></svg></g></svg>